<svg id="Capa_1" data-name="Capa 1" xmlns="http://www.w3.org/2000/svg" viewBox="0 0 20 20"><path d="M6.80218,13.604a.375.375,0,0,1-.26563-.64062l6.39551-6.39453a.37565.37565,0,0,1,.53125.53125L7.0678,13.49459A.37479.37479,0,0,1,6.80218,13.604Z"/><path d="M13.19768,13.604a.37479.37479,0,0,1-.26562-.10937L6.53655,7.10006a.37565.37565,0,0,1,.53125-.53125l6.39551,6.39453a.375.375,0,0,1-.26563.64062Z"/><path d="M10.00042,18.978a8.94629,8.94629,0,1,1,8.94629-8.94629A8.95713,8.95713,0,0,1,10.00042,18.978Zm0-17.14258a8.19629,8.19629,0,1,0,8.19629,8.19629A8.20631,8.20631,0,0,0,10.00042,1.83541Z"/></svg>